<mxfile host="app.diagrams.net" agent="Mozilla/5.0 (Windows NT 10.0; Win64; x64) AppleWebKit/537.36 (KHTML, like Gecko) Chrome/129.0.0.0 Safari/537.36" version="24.7.17">
  <diagram name="第 1 页" id="biEKrC-_6xwz8CWy3d3r">
    <mxGraphModel dx="1434" dy="746" grid="1" gridSize="10" guides="1" tooltips="1" connect="1" arrows="1" fold="1" page="1" pageScale="1" pageWidth="827" pageHeight="1169" math="0" shadow="0">
      <root>
        <mxCell id="0" />
        <mxCell id="1" parent="0" />
        <mxCell id="dYiu_2Q_5QayY8-ZxLOC-11" style="edgeStyle=orthogonalEdgeStyle;rounded=0;orthogonalLoop=1;jettySize=auto;html=1;entryX=0.5;entryY=0;entryDx=0;entryDy=0;" edge="1" parent="1" source="dYiu_2Q_5QayY8-ZxLOC-1" target="dYiu_2Q_5QayY8-ZxLOC-9">
          <mxGeometry relative="1" as="geometry" />
        </mxCell>
        <mxCell id="dYiu_2Q_5QayY8-ZxLOC-1" value="adapter&amp;nbsp; 【&lt;font color=&quot;#ff9999&quot;&gt;http websocket mqtt&lt;/font&gt;】" style="rounded=0;whiteSpace=wrap;html=1;" vertex="1" parent="1">
          <mxGeometry x="90" y="150" width="190" height="40" as="geometry" />
        </mxCell>
        <mxCell id="dYiu_2Q_5QayY8-ZxLOC-3" value="" style="points=[[0.03,0.03,0],[0.5,0,0],[0.97,0.03,0],[1,0.4,0],[0.97,0.745,0],[0.5,1,0],[0.03,0.745,0],[0,0.4,0]];verticalLabelPosition=bottom;sketch=0;html=1;verticalAlign=top;aspect=fixed;align=center;pointerEvents=1;shape=mxgraph.cisco19.workstation;fillColor=#005073;strokeColor=none;" vertex="1" parent="1">
          <mxGeometry x="144" y="48" width="50" height="40" as="geometry" />
        </mxCell>
        <mxCell id="dYiu_2Q_5QayY8-ZxLOC-4" style="edgeStyle=orthogonalEdgeStyle;rounded=0;orthogonalLoop=1;jettySize=auto;html=1;entryX=0.415;entryY=0;entryDx=0;entryDy=0;entryPerimeter=0;" edge="1" parent="1" source="dYiu_2Q_5QayY8-ZxLOC-3" target="dYiu_2Q_5QayY8-ZxLOC-1">
          <mxGeometry relative="1" as="geometry" />
        </mxCell>
        <mxCell id="dYiu_2Q_5QayY8-ZxLOC-5" value="本地" style="text;html=1;align=center;verticalAlign=middle;resizable=0;points=[];autosize=1;strokeColor=#82b366;fillColor=#d5e8d4;" vertex="1" parent="1">
          <mxGeometry x="15" y="158" width="50" height="30" as="geometry" />
        </mxCell>
        <mxCell id="dYiu_2Q_5QayY8-ZxLOC-6" value="adapter" style="rounded=0;whiteSpace=wrap;html=1;" vertex="1" parent="1">
          <mxGeometry x="370" y="150" width="190" height="40" as="geometry" />
        </mxCell>
        <mxCell id="dYiu_2Q_5QayY8-ZxLOC-7" value="" style="points=[[0.03,0.03,0],[0.5,0,0],[0.97,0.03,0],[1,0.4,0],[0.97,0.745,0],[0.5,1,0],[0.03,0.745,0],[0,0.4,0]];verticalLabelPosition=bottom;sketch=0;html=1;verticalAlign=top;aspect=fixed;align=center;pointerEvents=1;shape=mxgraph.cisco19.workstation;fillColor=#005073;strokeColor=none;" vertex="1" parent="1">
          <mxGeometry x="424" y="48" width="50" height="40" as="geometry" />
        </mxCell>
        <mxCell id="dYiu_2Q_5QayY8-ZxLOC-8" style="edgeStyle=orthogonalEdgeStyle;rounded=0;orthogonalLoop=1;jettySize=auto;html=1;entryX=0.416;entryY=-0.025;entryDx=0;entryDy=0;entryPerimeter=0;" edge="1" parent="1" source="dYiu_2Q_5QayY8-ZxLOC-7" target="dYiu_2Q_5QayY8-ZxLOC-6">
          <mxGeometry relative="1" as="geometry" />
        </mxCell>
        <mxCell id="dYiu_2Q_5QayY8-ZxLOC-9" value="应用层 app" style="rounded=0;whiteSpace=wrap;html=1;" vertex="1" parent="1">
          <mxGeometry x="90" y="220" width="190" height="40" as="geometry" />
        </mxCell>
        <mxCell id="dYiu_2Q_5QayY8-ZxLOC-12" value="资源管层 根据站点 从服务端获取配置和下载更新jar包" style="rounded=0;whiteSpace=wrap;html=1;" vertex="1" parent="1">
          <mxGeometry x="630" y="230" width="190" height="40" as="geometry" />
        </mxCell>
        <mxCell id="dYiu_2Q_5QayY8-ZxLOC-13" value="设备层" style="rounded=0;whiteSpace=wrap;html=1;" vertex="1" parent="1">
          <mxGeometry x="119" y="290" width="121" height="40" as="geometry" />
        </mxCell>
      </root>
    </mxGraphModel>
  </diagram>
</mxfile>
